<?xml version="1.0" encoding="UTF-8"?>
<svg id="Layer_2" data-name="Layer 2" xmlns="http://www.w3.org/2000/svg" viewBox="0 0 27.58 34.57">
  <defs>
    <style>
      .cls-1 {
        fill: #94a3b8;
      }
    </style>
  </defs>
  <g id="Layer_1-2" data-name="Layer 1">
    <g id="T1FWDj.tif">
      <g>
        <path class="cls-1" d="M26.23,0H1.4C.7.28.12.8.04,1.59v28.7c.09.71,1.02.44,1.02.14V4.73h23.85c.4,0,.4-1.01,0-1.01H1.06v-1.86c0-.5.63-.9,1.11-.85h23.35c.46-.03,1.05.38,1.05.85v30.85c0,.47-.59.88-1.05.85H2.1c-.61-.05-.96-.29-1.03-.92-.06-.49.18-1.17-.58-1.11-.61.04-.5,1.12-.44,1.58.08.59.71,1.27,1.29,1.41l24.72.05c.76-.12,1.25-.67,1.52-1.35V1.35c-.26-.66-.68-1.09-1.35-1.35Z"/>
        <path class="cls-1" d="M3.87,27.02l8.58.02c.22.13.44.33.48.6l-.04,4.42c-.13.22-.33.44-.6.48l-8.47-.04c-.22-.13-.44-.33-.48-.6.11-1.33-.14-2.89,0-4.19.04-.34.22-.54.53-.69ZM11.92,28.02h-7.56v3.51h1.11c.15,0,1.54-1.78,2.19-1.93.27-.06.73-.06,1,.02.64.19,2,1.91,2.14,1.91h1.11v-3.51ZM9.22,31.53c-.24-.25-.75-.94-1.1-.93-.32.02-.83.69-1.06.93h2.16Z"/>
        <path class="cls-1" d="M15.21,27.02l8.58.02c.22.13.44.33.48.6l-.04,4.42c-.13.22-.33.44-.6.48l-8.47-.04c-.22-.13-.44-.33-.48-.6.11-1.33-.14-2.89,0-4.19.04-.34.22-.54.53-.69ZM23.26,28.02h-7.56v3.51h1.11c.15,0,1.54-1.78,2.19-1.93.27-.06.73-.06,1,.02.64.19,2,1.91,2.14,1.91h1.11v-3.51ZM20.56,31.53c-.24-.25-.75-.94-1.1-.93-.32.02-.83.69-1.06.93h2.16Z"/>
        <path class="cls-1" d="M5.83,18.12c3.81-.44,4.25,5.31.59,5.58s-4.11-5.17-.59-5.58ZM5.9,19.19c-2.15.34-1.71,3.7.52,3.42,2.22-.28,1.79-3.78-.52-3.42Z"/>
        <path class="cls-1" d="M13.46,18.12c3.81-.44,4.25,5.31.59,5.58s-4.11-5.17-.59-5.58ZM13.52,19.19c-2.15.34-1.71,3.7.52,3.42,2.22-.28,1.79-3.78-.52-3.42Z"/>
        <path class="cls-1" d="M21.08,18.12c3.81-.44,4.25,5.31.59,5.58s-4.11-5.17-.59-5.58ZM21.15,19.19c-2.15.34-1.71,3.7.52,3.42,2.22-.28,1.79-3.78-.52-3.42Z"/>
        <path class="cls-1" d="M4.28,24.66h3.76c.6.08.6.97,0,1.06-.57.09-3.14.09-3.7,0s-.61-.9-.06-1.06Z"/>
        <path class="cls-1" d="M11.9,24.66h3.76c.6.08.6.97,0,1.06-.57.09-3.14.09-3.7,0s-.61-.9-.06-1.06Z"/>
        <path class="cls-1" d="M19.53,24.66h3.76c.6.08.6.97,0,1.06-.57.09-3.14.09-3.7,0s-.61-.9-.06-1.06Z"/>
        <g>
          <path class="cls-1" d="M22.71,8.43H4.91c-.28,0-.5-.22-.5-.5s.22-.5.5-.5h17.8c.28,0,.5.22.5.5s-.22.5-.5.5Z"/>
          <path class="cls-1" d="M22.71,10.46H4.91c-.28,0-.5-.22-.5-.5s.22-.5.5-.5h17.8c.28,0,.5.22.5.5s-.22.5-.5.5Z"/>
          <path class="cls-1" d="M22.71,12.48H4.91c-.28,0-.5-.22-.5-.5s.22-.5.5-.5h17.8c.28,0,.5.22.5.5s-.22.5-.5.5Z"/>
        </g>
        <rect class="cls-1" x=".05" y="30.29" width="1.02" height="2.35"/>
      </g>
    </g>
  </g>
</svg>