<?xml version="1.0" encoding="UTF-8"?>
<svg id="Layer_2" data-name="Layer 2" xmlns="http://www.w3.org/2000/svg" viewBox="0 0 18.47 19.28">
  <defs>
    <style>
      .cls-1 {
        fill: #8bc53f;
      }
    </style>
  </defs>
  <g id="Layer_1-2" data-name="Layer 1">
    <g>
      <path class="cls-1" d="M.49,8.4s.09-.01.13-.02l3.64-1.02,1.84,1.08c.12-.31.28-.6.49-.86l-1.82-1.07-.86-3.74c-.06-.26-.33-.43-.59-.37-.26.06-.43.33-.37.59l.65,2.83-2.04-1.19c-.24-.14-.54-.06-.67.18-.14.24-.06.54.18.67l2.02,1.18-2.73.77c-.26.07-.41.35-.34.61.06.22.26.36.47.36Z"/>
      <path class="cls-1" d="M6.18,11.02l-1.8,1.13-3.71-.97c-.26-.07-.53.09-.6.35-.07.26.09.53.35.6l2.81.73-2,1.26c-.23.14-.3.45-.16.68.1.14.26.23.42.23.09,0,.18-.03.26-.08l1.99-1.24-.58,2.77c-.06.27.11.53.38.58.03.01.07.01.1.01.23,0,.43-.16.48-.39l.78-3.7,1.8-1.14c-.21-.24-.39-.52-.52-.82Z"/>
      <path class="cls-1" d="M9.76,15.07v-2.12s-.07,0-.11.01c.04,0,.07,0,.1-.02.81-.12,1.55-.53,2.08-1.18.2-.26.37-.54.5-.83.17-.41.26-.84.26-1.29s-.09-.89-.27-1.31c-.13-.31-.3-.59-.51-.84-.51-.62-1.23-1.03-2.03-1.16-.06-.01-.12-.02-.18-.02.06,0,.12,0,.17.02v-2.12l2.72-2.63c.2-.19.2-.5.01-.7-.19-.19-.5-.2-.7-.01l-2.04,1.97V.49c0-.27-.22-.49-.49-.49s-.49.22-.49.49v2.37L6.67.86c-.2-.19-.51-.18-.7.02s-.18.51.02.7l2.79,2.63v2.11s.08,0,.12-.01c-.04,0-.08,0-.12.02-.86.11-1.66.57-2.19,1.25-.2.25-.37.54-.49.87-.14.38-.22.79-.22,1.2,0,.47.1.94.3,1.37.13.29.31.58.52.82.53.62,1.27,1.01,2.05,1.12.16.03.32.04.49.04.03,0,.07,0,.11,0-.04,0-.07.01-.1.01-.16,0-.32-.01-.47-.04v2.11l-2.79,2.63c-.2.19-.21.5-.02.7s.5.21.7.02l2.12-2v2.37c0,.27.22.49.49.49s.49-.22.49-.49v-2.35l2.04,1.97c.1.09.22.14.34.14.13,0,.26-.05.35-.15.19-.2.18-.51-.01-.7l-2.72-2.63ZM9.24,6.28c.07,0,.13.01.2.02-.13,0-.25,0-.36,0,.06,0,.11-.01.17-.01ZM8.87,12.21c-.62-.08-1.19-.39-1.6-.87-.16-.19-.3-.41-.4-.63-.15-.34-.23-.7-.23-1.07,0-.31.06-.64.17-.93.1-.25.22-.47.38-.67.41-.54,1.03-.89,1.72-.98.1-.02.2-.03.33-.03s.28.02.42.04c.62.1,1.18.42,1.58.9.16.19.29.41.39.65.14.32.21.67.21,1.01s-.07.68-.2,1c-.1.23-.23.45-.39.65-.41.5-.98.82-1.64.92-.17.04-.42.06-.74,0Z"/>
      <path class="cls-1" d="M18.45,11.23c-.06-.25-.33-.4-.6-.32l-3.68,1.08h-.01l-1.82-1.06c-.13.31-.3.59-.5.84l1.82,1.06.9,3.67c.05.22.26.38.48.38.04,0,.08,0,.12-.01.26-.06.43-.33.36-.6l-.67-2.75h.01l2.01,1.18c.08.05.17.07.25.07.17,0,.34-.09.43-.25.13-.23.06-.53-.18-.67l-2.04-1.19,2.79-.82c.26-.08.41-.35.33-.61Z"/>
      <path class="cls-1" d="M12.33,8.33l1.8-1.13,3.68.91s.08.01.12.01c.22,0,.42-.15.48-.37.07-.26-.1-.53-.36-.6l-2.75-.68,1.99-1.25c.23-.14.3-.45.15-.68-.14-.23-.45-.3-.68-.15l-2.01,1.26.56-2.86c.05-.27-.12-.53-.39-.58-.27-.05-.53.12-.58.39l-.73,3.77-1.79,1.12c.21.25.38.53.51.84Z"/>
    </g>
  </g>
</svg>