<?xml version="1.0" encoding="UTF-8"?>
<svg id="Layer_2" data-name="Layer 2" xmlns="http://www.w3.org/2000/svg" viewBox="0 0 19.29 23.57">
  <defs>
    <style>
      .cls-1 {
        fill: #8bc53f;
        fill-rule: evenodd;
      }
    </style>
  </defs>
  <g id="Layer_1-2" data-name="Layer 1">
    <path class="cls-1" d="M17.69,1.03c.88,0,1.6.72,1.6,1.6s-.72,1.6-1.6,1.6c-.73,0-1.35-.49-1.54-1.16,0-.02-.03-.04-.05-.04h-6.39c-.22,0-.4-.18-.4-.4s.18-.4.4-.4h6.39s.04-.01.05-.04c.19-.68.81-1.16,1.54-1.16h0ZM17.69,6.76c.88,0,1.6.72,1.6,1.6s-.72,1.6-1.6,1.6c-.73,0-1.35-.49-1.54-1.16,0-.02-.03-.04-.05-.04h-6.39c-.22,0-.4-.18-.4-.4s.18-.4.4-.4h6.39s.04-.01.05-.04c.19-.68.81-1.16,1.54-1.16h0ZM17.69,18.99c.88,0,1.6.72,1.6,1.6s-.72,1.6-1.6,1.6c-.73,0-1.35-.49-1.54-1.16,0-.02-.03-.04-.05-.04h-6.39c-.22,0-.4-.18-.4-.4s.18-.4.4-.4h6.39s.04-.01.05-.04c.19-.68.81-1.16,1.54-1.16h0ZM17.69,12.93c.88,0,1.6.72,1.6,1.6s-.72,1.6-1.6,1.6c-.73,0-1.35-.49-1.54-1.16,0-.02-.03-.04-.05-.04h-3.58c-.22,0-.4-.18-.4-.4s.18-.4.4-.4h3.58s.04-.01.05-.04c.19-.68.81-1.16,1.54-1.16h0ZM9.62,13.28h-1.69V2.79c0-1.54-1.25-2.79-2.79-2.79s-2.79,1.25-2.79,2.79v10.48H.64c-.35,0-.64.29-.64.64v1.21c0,.35.29.64.64.64h1.69v6.39c0,.78.63,1.41,1.41,1.41h2.77c.78,0,1.41-.63,1.41-1.41v-6.39h1.69c.35,0,.64-.29.64-.64v-1.21c0-.35-.29-.64-.64-.64ZM2.84,2.79c0-1.27,1.03-2.29,2.29-2.29s2.29,1.03,2.29,2.29v10.48h-.34c-.37-.58-.99-.97-1.71-1.04V2.38c0-.14-.11-.25-.25-.25s-.25.11-.25.25v9.85c-.72.08-1.34.47-1.71,1.04h-.34V2.79ZM7.42,22.16c0,.5-.41.91-.91.91h-2.77c-.5,0-.91-.41-.91-.91v-6.39h.34c.37.58.99.97,1.71,1.04v4.73c0,.14.11.25.25.25s.25-.11.25-.25v-4.73c.72-.08,1.34-.47,1.71-1.04h.34v6.39Z"/>
  </g>
</svg>