<?xml version="1.0" encoding="UTF-8"?>
<svg id="Layer_2" data-name="Layer 2" xmlns="http://www.w3.org/2000/svg" viewBox="0 0 17.28 25.17">
  <defs>
    <style>
      .cls-1 {
        fill: #8bc53f;
      }
    </style>
  </defs>
  <g id="Layer_1-2" data-name="Layer 1">
    <g>
      <path class="cls-1" d="M1.71,25.17c-.16-.1-.21-.26-.2-.44,0-.06,0-.12,0-.18q0-.27-.27-.31c-.65-.11-1.19-.71-1.23-1.38,0-.07,0-.14,0-.21C0,19.59,0,9.52,0,6.46c0-.66.27-1.18.87-1.46.23-.11.5-.14.75-.16.5-.02,2.99,0,3.49,0,.06,0,.13,0,.2,0V1.52c-.17,0-.34,0-.51,0-.27,0-.39-.12-.39-.39,0-.26,0-.52,0-.78,0-.23.12-.35.35-.35,1.59,0,6.15,0,7.74,0,.23,0,.35.12.35.35,0,.27,0,.53,0,.8,0,.25-.12.36-.37.37-.17,0-.34,0-.53,0v3.31c.07,0,.13,0,.2.01.59,0,3.17,0,3.75.03.72.04,1.31.66,1.36,1.38,0,.07,0,.14,0,.21,0,3.06,0,13.13,0,16.19,0,.66-.27,1.16-.87,1.46-.14.07-.31.11-.47.13-.13.02-.18.06-.16.19,0,.1,0,.2,0,.3,0,.18-.04.34-.2.44h-1.42c-.17-.1-.22-.24-.21-.43,0-.15,0-.3,0-.46H3.34c0,.16,0,.31,0,.46.01.19-.05.34-.21.43h-1.42ZM.6,18.04c0,1.54,0,3.08,0,4.61,0,.62.37.99.99.99,2.37,0,11.71,0,14.08,0,.62,0,.99-.37.99-.99,0-3.07,0-13.14,0-16.21,0-.63-.45-1-1-1-2.37.01-11.71,0-14.08,0-.1,0-.2,0-.3.03-.45.11-.7.46-.7.96,0,1.53,0,10.06,0,11.59ZM5.95,4.82h5.38V1.53h-5.38v3.29ZM5.04.89h7.2v-.27h-7.2v.27ZM2.14,24.55h.57v-.27h-.57v.27ZM14.57,24.28v.27h.57v-.27h-.57Z"/>
      <path class="cls-1" d="M8.32,18.04c0-1.5,0-10,0-11.51,0-.08,0-.17.02-.25.03-.15.13-.22.28-.22.15,0,.26.08.29.23.02.07.02.14.02.21,0,3.03,0,13.07,0,16.1,0,.08,0,.15-.03.23-.04.14-.14.21-.29.21-.15,0-.25-.08-.28-.22-.02-.08-.02-.16-.02-.25,0-1.51,0-3.03,0-4.54Z"/>
      <path class="cls-1" d="M2.42,18.06c0-1.33,0-9.66,0-10.99,0-.26.11-.4.3-.4.15,0,.27.09.3.25.01.07.01.14.01.21,0,2.62,0,12.24,0,14.86,0,.06,0,.13,0,.19-.02.16-.12.25-.28.26-.17,0-.27-.08-.31-.23-.02-.07-.01-.14-.01-.21,0-1.31,0-2.62,0-3.94Z"/>
      <path class="cls-1" d="M14.86,18.06c0,1.33,0,2.66,0,3.99,0,.25-.1.38-.29.39-.16,0-.29-.09-.31-.25-.01-.07-.01-.14-.01-.21,0-2.62,0-12.24,0-14.86,0-.06,0-.13,0-.19.02-.16.11-.24.27-.26.17-.01.27.07.32.22.02.07.02.14.02.21,0,1.32,0,9.64,0,10.95Z"/>
    </g>
  </g>
</svg>