<?xml version="1.0" encoding="UTF-8"?>
<svg id="Layer_2" data-name="Layer 2" xmlns="http://www.w3.org/2000/svg" viewBox="0 0 63.43 23.99">
  <defs>
    <style>
      .cls-1 {
        fill: #7f8681;
      }
    </style>
  </defs>
  <g id="Layer_1-2" data-name="Layer 1">
    <g>
      <path class="cls-1" d="M63.43,13.13v5.44c-.27.53-.42,1.11-.87,1.54-.88.86-3.18,1.42-2.97-.37.12-1.07,1.49-.51,1.81-1.41.24-.7.28-3.13.19-3.91-.02-.18-.02-.32-.19-.43h-2.1c-.11,0-.6-.42-.65-.58-.38-1.28.84-1.54,1.83-1.4.3-.22-2.9-1.32-3.12-1.39-3.04-.93-6.86-1.44-10.04-1.58-7.79-.33-15.8.26-23.61,0-1.27-.2-.81-1.97-.13-1.97h3.28V2.13c-2.74.1-5.55-.32-8.2.48l-1.07,4.46h2.66c.58,0,1.24,1.8-.37,1.98-1.37.15-3.21-.01-4.48-.6-1.35-.63-2.21-1.88-3.31-2.83-1.27.69-2.63,1.18-4.04,1.49-1.56.34-3.86.31-5.2.73-.97.31-.83,1.36-.83,2.2,2.71-.47,2.72,2.44,0,1.98v2.66c0,.64.5,1.47,1.07,1.77.37.19,3.85,1.29,4,1.14.82-8.21,12.79-6.83,11.74,1.36h26.95c-1.01-5.63,6.01-9.28,10.08-5.2,5.15,5.16-2.03,13.5-7.91,8.91-.65-.5-1.04-1.24-1.61-1.73l-28.25.06c-1.87,3.21-6.28,3.89-9.08,1.42-.87-.77-1.24-1.67-1.8-2.65-2.43-.85-6.67-1.04-7.04-4.33-.17-1.5-.18-5.69,0-7.17.36-2.93,4.75-2.53,6.95-2.94C12.16,4.35,15.81.47,21.2.14c3.13-.19,7.64-.2,10.77,0,5.35.34,9.44,4.37,13.9,6.87,4.2.24,8.47.55,12.49,1.85,2.44.78,4.29,1.61,5.07,4.26ZM32.34,2.13c-1.12-.11-2.39.08-3.52,0v4.95h13.35l-5.85-3.73c-1.03-.5-2.85-1.1-3.98-1.21ZM15.71,6.33l.62-2.84-2.35,1.11,1.73,1.73ZM12.34,14.03c-4.92.67-4.18,8.52,1.19,7.87,5.01-.61,4.17-8.59-1.19-7.87ZM51.04,14.03c-4.57.62-4.42,7.44.09,7.88,5.93.58,5.71-8.67-.09-7.88Z"/>
      <path class="cls-1" d="M21.61,15.01l21.12-.03c1.25.12,1.25,1.86,0,1.98h-20.9c-1.13-.1-1.28-1.6-.22-1.95Z"/>
      <path class="cls-1" d="M11.54,19.4c-.27-.26-.34-.82-.19-1.17.07-.17,1.43-1.57,1.63-1.71.95-.67,1.98.16,1.52,1.27-.08.19-1.17,1.28-1.39,1.46-.47.36-1.07.65-1.58.15Z"/>
      <path class="cls-1" d="M53.01,19.4c-.5.5-1.1.22-1.58-.15-.22-.17-1.31-1.26-1.39-1.46-.46-1.12.57-1.94,1.52-1.27.2.14,1.56,1.54,1.63,1.71.15.35.08.91-.19,1.17Z"/>
    </g>
  </g>
</svg>