<?xml version="1.0" encoding="UTF-8"?>
<svg id="Layer_2" data-name="Layer 2" xmlns="http://www.w3.org/2000/svg" viewBox="0 0 16.97 20.36">
  <defs>
    <style>
      .cls-1 {
        fill: #8bc53f;
      }
    </style>
  </defs>
  <g id="Layer_1-2" data-name="Layer 1">
    <g>
      <path class="cls-1" d="M12.14,0c.28.13.58.23.82.41.41.3.59.74.61,1.24,0,.26,0,.53,0,.8,0,3.34,0,6.68,0,10.02,0,.08,0,.16,0,.26.12,0,.23,0,.35,0,.81,0,1.35.53,1.36,1.34,0,.25,0,.49,0,.74,0,.27.18.46.41.47.22,0,.4-.18.43-.44,0-.03,0-.07,0-.1,0-2.31,0-4.61,0-6.92v-.17c-.37-.02-.7-.12-.99-.33-.48-.36-.7-.85-.71-1.44,0-.36,0-.73,0-1.09,0-.2.07-.36.21-.49.39-.39.78-.78,1.17-1.17.05-.05.09-.1.14-.15-.43-.43-.85-.85-1.27-1.27-.28-.28-.32-.52-.11-.72.2-.2.44-.16.72.12.49.49.97.98,1.46,1.46.16.16.24.33.24.56,0,3.87,0,7.74,0,11.61,0,.68-.33,1.16-.91,1.34-.82.25-1.62-.35-1.64-1.25,0-.24,0-.49,0-.74,0-.33-.15-.49-.48-.5-.11,0-.22,0-.35,0v3.35c.24.07.48.1.7.2.66.31.97.86.99,1.57.01.38,0,.77,0,1.15,0,.34-.17.5-.5.5-4.76,0-9.52,0-14.27,0-.33,0-.5-.15-.5-.48,0-.48,0-.97.02-1.45.04-.7.75-1.4,1.45-1.44.2-.01.22-.09.22-.25,0-4.96,0-9.93,0-14.89,0-.62.19-1.16.71-1.51C2.63.18,2.9.11,3.16,0,6.15,0,9.15,0,12.14,0ZM2.56,16.94h10.17v-.27c0-2.51,0-5.02,0-7.53,0-2.43,0-4.86,0-7.29,0-.65-.31-.99-.92-.99-2.78,0-5.55,0-8.33,0-.38,0-.68.14-.83.49-.06.15-.08.32-.08.48,0,4.96,0,9.92,0,14.89,0,.07,0,.14,0,.23ZM14.41,19.49c0-.34.03-.66,0-.98-.05-.43-.43-.7-.94-.7-3.88,0-7.76,0-11.65,0-.06,0-.12,0-.18,0-.41.05-.71.31-.76.72-.03.31,0,.63,0,.95h13.54ZM16.11,4.01c-.28.28-.54.53-.79.79-.03.03-.04.08-.04.13,0,.36-.01.73,0,1.09.02.43.4.77.82.74v-2.75Z"/>
      <path class="cls-1" d="M7.63,7.64c-1.22,0-2.44,0-3.66,0-.45,0-.58-.13-.58-.58,0-1.6,0-3.21,0-4.81,0-.41.14-.56.56-.56,2.45,0,4.9,0,7.35,0,.43,0,.57.15.57.57,0,1.6,0,3.21,0,4.81,0,.43-.14.56-.58.56-1.23,0-2.45,0-3.68,0ZM11.02,6.79V2.55h-6.75v4.24h6.75Z"/>
    </g>
  </g>
</svg>