<?xml version="1.0" encoding="UTF-8"?>
<svg id="Layer_2" data-name="Layer 2" xmlns="http://www.w3.org/2000/svg" viewBox="0 0 17.28 14.69">
  <defs>
    <style>
      .cls-1 {
        fill: #8bc53f;
      }
    </style>
  </defs>
  <g id="Layer_1-2" data-name="Layer 1">
    <g>
      <path class="cls-1" d="M17.28,8.66c-.09.07-.16.18-.26.22-.2.08-.41-.1-.41-.34,0-.39,0-.77,0-1.2-.09.08-.15.14-.22.2-.51.46-1.17.46-1.67-.01-.08-.07-.15-.15-.24-.22-.19-.15-.43-.15-.62,0-.09.07-.17.15-.25.23-.49.45-1.15.45-1.64,0-.08-.08-.16-.16-.25-.23-.2-.16-.44-.16-.63,0-.09.07-.17.15-.25.23-.48.44-1.13.44-1.62.01-.09-.08-.18-.17-.27-.25-.19-.15-.43-.15-.62,0-.09.07-.17.15-.25.23-.49.45-1.15.45-1.64,0-.08-.08-.16-.16-.25-.23-.2-.16-.44-.16-.63,0-.09.07-.17.15-.25.23-.48.44-1.13.44-1.62.01-.09-.08-.18-.17-.27-.25-.19-.15-.43-.16-.62,0-.23.19-.42.42-.72.52-.03,0-.05.09-.05.14,0,.39,0,.78,0,1.16,0,.29-.12.42-.42.42-.3,0-.61,0-.91,0-.04.49.4.98.91.99.74.02,1.47,0,2.21,0,.43,0,.85,0,1.28.02.48.03.86.27,1.16.64.59.75,1.19,1.5,1.76,2.26.27.36.61.53,1.06.52,2.14-.01,4.27,0,6.41,0,.54,0,.92-.24,1.06-.69.04-.12.05-.24.05-.36,0-.41,0-.82,0-1.23,0-.19.02-.37.22-.44.2-.07.34.04.45.19v1.79c-.1.24-.16.49-.3.7-.33.51-.84.73-1.44.74-2.19,0-4.39,0-6.58,0-.58,0-1.05-.24-1.41-.71-.59-.75-1.18-1.5-1.77-2.26-.25-.33-.56-.48-.98-.48-1.01.01-2.01,0-3.02,0-.6,0-1.1-.21-1.46-.7C.1,10.25,0,9.91,0,9.54c0-1.69,0-3.39,0-5.08,0-1.03.73-1.76,1.76-1.76,2.32,0,4.65,0,6.97,0,.42,0,.84,0,1.28,0v-.66c-.09,0-.17,0-.26,0-.27-.01-.4-.15-.4-.41,0-.4,0-.81,0-1.21,0-.28.13-.41.42-.41.52,0,1.05,0,1.57,0,.82,0,1.64,0,2.46,0,.34,0,.44.1.44.44,0,.4,0,.8,0,1.2,0,.27-.12.39-.39.4-.09,0-.18,0-.28,0v.66c.21,0,.41,0,.61,0,.52,0,1.05-.02,1.57.02.76.06,1.33.6,1.49,1.34,0,.03.02.05.03.08v4.52ZM2.02,7.1c.11-.1.18-.16.25-.23.51-.46,1.15-.46,1.66,0,.07.07.15.14.22.2.2.17.46.17.66,0,.09-.08.17-.16.26-.24.49-.42,1.13-.42,1.61.02.08.08.16.15.25.23.2.16.45.16.65,0,.11-.09.21-.19.31-.28.45-.37,1.09-.36,1.53.03.08.07.16.15.24.22.23.21.49.21.72,0,.09-.08.17-.16.26-.24.47-.39,1.1-.38,1.55.02.09.08.17.16.26.24.2.17.46.17.66,0,.11-.09.2-.19.31-.28.45-.37,1.08-.35,1.52.03.08.07.15.14.22.21.26.24.5.23.77,0,.17-.15.35-.29.54-.4.09-.06.12-.1.12-.2,0-.66,0-1.32,0-1.97,0-.63-.43-1.06-1.06-1.06-.6,0-1.2,0-1.81,0-.05,0-.11,0-.17,0,0,.58,0,1.14,0,1.7,0,.08,0,.16-.04.23-.07.14-.23.2-.39.16-.15-.04-.24-.17-.24-.34,0-.97,0-1.95,0-2.92,0-.06,0-.12,0-.18h-2.19c0,.07,0,.13,0,.19,0,.97,0,1.93,0,2.9,0,.22-.14.36-.34.36-.2,0-.34-.14-.34-.36,0-.44,0-.88,0-1.32,0-.14,0-.28,0-.43-.07,0-.11,0-.16,0-2.71,0-5.42,0-8.13,0-.09,0-.19,0-.28.03-.6.16-.87.7-.74,1.41.29,0,.58,0,.87,0,.34,0,.45.11.45.44,0,.59,0,1.19,0,1.83ZM13.56.7h-3.53v.64h3.53v-.64ZM.68,5.52v3.34h.65v-3.34h-.65Z"/>
      <path class="cls-1" d="M17.28,10.18c-.09.14-.2.26-.39.23-.15-.02-.27-.15-.28-.3-.01-.16.05-.28.19-.34.15-.07.28-.04.4.08.03.03.06.06.08.1v.24Z"/>
    </g>
  </g>
</svg>