<?xml version="1.0" encoding="UTF-8"?>
<svg id="Layer_2" data-name="Layer 2" xmlns="http://www.w3.org/2000/svg" viewBox="0 0 16.95 24.43">
  <defs>
    <style>
      .cls-1 {
        fill: #8bc53f;
      }
    </style>
  </defs>
  <g id="Layer_1-2" data-name="Layer 1">
    <g>
      <path class="cls-1" d="M8.72,24.43c-.19-.12-.24-.29-.24-.5,0-1.21,0-2.42,0-3.62,0-.38.11-.5.49-.5.48,0,.95,0,1.43,0,.27,0,.44.14.45.36,0,.22-.16.36-.44.36-.38,0-.76,0-1.14,0-.01,0-.03.01-.06.03v1.21c.38,0,.76,0,1.14,0,.19,0,.32.1.36.28.04.17-.03.32-.19.39-.08.03-.17.04-.25.04-.35,0-.69,0-1.05,0v1.24c.38,0,.76,0,1.14,0,.2,0,.38.01.47.23.09.23-.05.36-.2.48h-1.91Z"/>
      <path class="cls-1" d="M4.98,19.11c-.17-.24-.32-.45-.47-.68-.11.06-.2.12-.3.17-.29.17-.51.15-.62-.06-.11-.2-.03-.39.24-.56.09-.06.19-.11.3-.18-.13-.25-.25-.48-.37-.73-.15.06-.29.12-.43.18-.23.08-.41.01-.5-.19-.08-.19,0-.38.22-.48.13-.06.26-.11.41-.18-.09-.26-.18-.51-.27-.78-.15.04-.29.08-.42.11-.25.06-.44-.04-.49-.25-.05-.21.07-.38.31-.45.13-.04.26-.07.41-.12-.05-.26-.1-.52-.16-.8-.15.02-.28.04-.42.05-.27.03-.45-.1-.47-.32-.02-.2.12-.35.38-.4.07-.01.14-.02.21-.04.06,0,.12-.02.21-.03-.02-.28-.04-.54-.06-.83-.25,0-.48,0-.72,0-.52,0-1.03,0-1.55,0C.16,12.55,0,12.41,0,12.2c0-.21.17-.36.42-.36.67,0,1.34,0,2,0,.09,0,.17,0,.27,0,.02-.28.04-.54.06-.82-.15-.02-.29-.04-.43-.06-.26-.05-.41-.23-.37-.43.04-.22.23-.32.5-.28.12.02.24.03.39.05.05-.24.11-.47.15-.71,0-.04-.05-.11-.1-.13-.1-.04-.21-.06-.32-.1-.23-.07-.34-.25-.28-.45.05-.2.25-.3.47-.24.14.04.29.08.44.12.09-.26.18-.5.27-.77-.14-.06-.28-.12-.41-.18-.22-.1-.31-.28-.23-.48.09-.21.28-.28.51-.19.13.05.26.11.41.17.13-.24.25-.48.38-.73-.13-.08-.27-.16-.4-.25-.2-.13-.25-.33-.14-.51.1-.17.3-.21.5-.11.07.04.14.08.21.12.06.04.12.07.2.11.15-.22.3-.44.47-.67-.45-.36-.88-.7-1.31-1.05-.1-.08-.2-.15-.3-.24-.2-.17-.22-.37-.08-.54.13-.16.34-.17.53-.02.49.39.98.78,1.47,1.17.04.03.09.07.14.1.17-.19.34-.37.51-.54.19-.2.4-.22.56-.07.16.16.15.36-.04.57-.9.95-1.63,2.01-2.15,3.21-.7,1.64-.99,3.34-.86,5.11.2,2.57,1.2,4.78,2.95,6.66.04.05.09.09.13.14.12.17.1.37-.05.49-.16.13-.33.13-.48-.01-.2-.19-.37-.39-.58-.61-.22.17-.43.34-.65.51-.32.25-.63.51-.95.76-.2.15-.42.14-.55-.02-.14-.17-.11-.37.1-.54.53-.42,1.06-.84,1.6-1.28Z"/>
      <path class="cls-1" d="M11.9,10.81c-.81-.64-1.59-1.26-2.37-1.89-.46-.37-.92-.73-1.38-1.1-.22-.17-.26-.38-.13-.55.14-.19.35-.2.58-.01,1.16.92,2.33,1.85,3.49,2.78.08.06.16.13.23.18.27-.17.52-.36.8-.48.85-.38,1.7-.33,2.51.14.24.14.3.32.21.51-.11.21-.31.26-.57.11-.62-.35-1.25-.39-1.89-.09-.15.07-.28.17-.46.28.24.19.44.36.65.53.28.22.56.44.84.67.2.17.24.37.11.54-.13.18-.35.19-.57.02-.43-.33-.85-.67-1.27-1.01-.06-.05-.12-.09-.21-.16-.29.58-.31,1.16-.06,1.73.41.95,1.49,1.42,2.46,1.09.98-.33,1.54-1.34,1.3-2.35-.01-.06-.04-.12-.05-.18-.05-.24.05-.43.24-.47.21-.05.38.05.46.28.2.62.18,1.24-.06,1.84-.47,1.16-1.59,1.82-2.71,1.71-1.33-.12-2.32-1.05-2.5-2.29-.09-.63.01-1.23.35-1.81Z"/>
      <path class="cls-1" d="M4.32,12.21c.02-2.63.92-4.92,2.72-6.84.03-.03.06-.07.1-.1.17-.15.36-.16.51-.02.15.14.15.34.01.51-.31.37-.65.73-.93,1.12-1.35,1.9-1.88,4.02-1.65,6.33.09.94.34,1.85.74,2.72.03.07.06.13.09.2.09.23.03.42-.15.51-.19.09-.41.02-.5-.21-.21-.52-.43-1.04-.59-1.58-.25-.86-.37-1.74-.36-2.64Z"/>
      <path class="cls-1" d="M9.19.76v1.16c.29,0,.57,0,.85,0,.09,0,.18,0,.26,0,.2.02.34.18.34.36,0,.2-.14.35-.37.35-.35,0-.7,0-1.07,0,0,.1-.01.18-.01.27,0,.45,0,.89,0,1.34,0,.24-.15.39-.35.39-.21,0-.36-.14-.36-.38,0-1.29,0-2.57,0-3.86,0-.25.13-.38.39-.38.51,0,1.02,0,1.53,0,.24,0,.39.14.38.36,0,.21-.15.35-.39.35-.38,0-.76,0-1.14,0,0,0-.01,0-.04.03Z"/>
      <path class="cls-1" d="M7.8,18.93c-.07.09-.14.23-.24.27-.11.04-.3.03-.37-.04-.39-.43-.76-.87-1.11-1.33-.12-.15-.07-.34.09-.46.16-.12.35-.11.49.06.35.41.69.83,1.03,1.25.05.06.06.14.11.26Z"/>
    </g>
  </g>
</svg>