<?xml version="1.0" encoding="UTF-8"?>
<svg id="Layer_1" data-name="Layer 1" xmlns="http://www.w3.org/2000/svg" viewBox="0 0 303.91 161.04">
  <defs>
    <style>
      .cls-1 {
        fill: #8dc63f;
      }

      .cls-2 {
        fill: #808782;
      }

      .cls-3 {
        fill: #85a569;
      }
    </style>
  </defs>
  <g>
    <path class="cls-2" d="M184.31,62.75h-73.1c-1.35,0-1.73-1.85-.49-2.38,20.37-8.7,35.78-18.97,43.54-29.24,4.62-6.13,6.33-12.01,5.07-17.5-.82-3.58-2.87-6.77-6.08-9.51,2.32.69,4.61,1.47,6.87,2.32,14.48,7.54,23.68,18.23,26.6,30.93,1.89,8.19,1.08,16.72-2.41,25.38Z"/>
    <path class="cls-1" d="M189.65,62.76c3.27-8.99,3.92-17.89,1.94-26.52-1.93-8.38-6.24-15.93-12.71-22.42,17.18,10.45,30.78,26.24,38.5,45.04.76,1.86-.63,3.9-2.64,3.9h-25.09Z"/>
    <path class="cls-1" d="M150.91,27.24c-13.89-7.98-30-12.54-47.18-12.54-9.01,0-17.72,1.25-25.97,3.6-1.37.39-2.19-1.44-1.01-2.23C91.85,5.92,110.02,0,129.57,0h.03c1.67,0,3.35.2,4.97.63,11.49,2.99,18.5,8.06,19.9,14.12.86,3.74-.34,7.93-3.55,12.49Z"/>
  </g>
  <g>
    <path class="cls-1" d="M25.34,97.31c6.5,0,12.53,2.6,16.66,6.88,1.76,1.68,1.76,4.51,0,6.11-.84.84-1.91,1.3-3.06,1.3-1.07,0-2.22-.46-3.06-1.3-2.68-2.67-6.42-4.28-10.55-4.28-8.1,0-14.75,6.65-14.75,14.82s6.65,14.75,14.75,14.75c4.13,0,7.87-1.6,10.55-4.36.84-.84,1.99-1.3,3.06-1.3,1.15,0,2.22.46,3.06,1.3,1.76,1.76,1.76,4.59,0,6.19-4.13,4.28-10.16,6.96-16.66,6.96-12.99,0-23.46-10.55-23.46-23.54s10.47-23.54,23.46-23.54Z"/>
    <path class="cls-1" d="M50.11,113.36c0-2.22,1.76-4.05,3.97-4.05s3.97,1.83,3.97,4.05v15.13c0,4.28,3.59,7.87,7.87,7.87s7.87-3.59,7.87-7.87v-15.13c0-2.22,1.76-4.05,3.97-4.05s3.97,1.83,3.97,4.05v15.13c0,8.71-7.11,15.9-15.82,15.9s-15.82-7.19-15.82-15.9v-15.13Z"/>
    <path class="cls-1" d="M90.72,126.89v-25.52c0-2.22,1.76-3.97,3.97-3.97s4.05,1.75,4.05,3.97v25.52c0,5.2,4.2,9.48,9.48,9.48s9.4-4.28,9.4-9.48-4.2-9.4-9.4-9.4c-.46,0-.92,0-1.3.08-2.22.3-4.28-1.15-4.66-3.36-.31-2.22,1.22-4.28,3.44-4.66-.08,0,1.99-.15,2.52-.15,9.63,0,17.5,7.87,17.5,17.5s-7.87,17.5-17.5,17.5-17.5-7.87-17.5-17.5Z"/>
    <path class="cls-3" d="M166.96,126.89v13.45c0,2.21-1.83,4.05-4.05,4.05s-3.97-1.84-3.97-4.05v-13.45c0-5.2-4.28-9.4-9.48-9.4s-9.4,4.2-9.4,9.4,4.2,9.48,9.4,9.48c.46,0,.84-.08,1.3-.15,2.22-.3,4.28,1.15,4.59,3.36.38,2.22-1.15,4.28-3.36,4.66.08,0-2.07.15-2.52.15-9.63,0-17.5-7.87-17.5-17.5s7.87-17.5,17.5-17.5,17.5,7.87,17.5,17.5Z"/>
    <path class="cls-2" d="M172.62,114.81c-.84-2.14.31-4.35,2.37-5.27.38-.15.84-.23,1.22-.23,1.68,0,3.29,1.07,3.9,2.67l6.57,17.5,6.57-17.58c.61-1.53,1.98-2.6,3.67-2.6s3.21,1.07,3.82,2.6l6.57,17.58,6.49-17.5c.69-1.6,2.29-2.67,3.9-2.67.46,0,.84.07,1.3.23,1.99.92,3.13,3.14,2.37,5.27l-10.32,26.9c-.69,1.6-2.06,2.67-3.74,2.67s-3.13-1.07-3.74-2.67l-6.65-17.42-6.57,17.42c-.46,1.6-2.07,2.67-3.67,2.67s-3.21-1.07-3.75-2.67l-10.32-26.9Z"/>
    <path class="cls-2" d="M260.88,126.89v13.45c0,2.21-1.83,4.05-4.05,4.05s-3.97-1.84-3.97-4.05v-13.45c0-5.2-4.28-9.4-9.48-9.4s-9.4,4.2-9.4,9.4,4.2,9.48,9.4,9.48c.46,0,.84-.08,1.3-.15,2.22-.3,4.28,1.15,4.59,3.36.38,2.22-1.15,4.28-3.36,4.66.08,0-2.07.15-2.52.15-9.63,0-17.5-7.87-17.5-17.5s7.87-17.5,17.5-17.5,17.5,7.87,17.5,17.5Z"/>
    <path class="cls-2" d="M269.33,113.36c0-2.29,1.83-4.05,4.05-4.05s3.97,1.75,3.97,4.05v15.13c0,4.28,3.52,7.87,7.8,7.87s7.87-3.59,7.87-7.87v-15.13c0-2.29,1.76-4.05,3.97-4.05s3.97,1.75,3.97,4.05v15.13c0,8.71-7.11,15.9-15.82,15.9s-15.82-7.19-15.82-15.9v-15.13ZM285.15,153.1c3.44,0,6.34-1.76,8.02-4.36.84-1.22,2.07-1.99,3.44-1.99.76,0,1.45.23,2.06.62,1.99,1.3,2.45,3.74,1.3,5.58-3.06,4.89-8.63,8.1-14.82,8.1s-11.62-3.21-14.75-8.1c-1.14-1.83-.61-4.28,1.3-5.58.69-.38,1.3-.62,1.99-.62,1.38,0,2.67.77,3.52,1.99,1.68,2.6,4.74,4.36,7.95,4.36Z"/>
  </g>
</svg>