<?xml version="1.0" encoding="UTF-8"?>
<svg id="Layer_1" data-name="Layer 1" xmlns="http://www.w3.org/2000/svg" xmlns:xlink="http://www.w3.org/1999/xlink" viewBox="0 0 141.39 62.75">
  <defs>
    <style>
      .cls-1 {
        fill: url(#linear-gradient-3);
      }

      .cls-2 {
        fill: url(#linear-gradient-2);
      }

      .cls-3 {
        fill: url(#linear-gradient);
      }
    </style>
    <linearGradient id="linear-gradient" x1="110.18" y1="58.3" x2="48.54" y2="29.56" gradientUnits="userSpaceOnUse">
      <stop offset="0" stop-color="#444845"/>
      <stop offset=".49" stop-color="#808782"/>
      <stop offset="1" stop-color="#c9d4cc"/>
    </linearGradient>
    <linearGradient id="linear-gradient-2" x1="113.09" y1="40.21" x2="141.78" y2="51.22" gradientUnits="userSpaceOnUse">
      <stop offset="0" stop-color="#60873b"/>
      <stop offset=".49" stop-color="#8dc63f"/>
      <stop offset="1" stop-color="#b9d989"/>
    </linearGradient>
    <linearGradient id="linear-gradient-3" x1="0" y1="13.62" x2="78.54" y2="13.62" gradientUnits="userSpaceOnUse">
      <stop offset="0" stop-color="#b9d989"/>
      <stop offset=".51" stop-color="#8dc63f"/>
      <stop offset="1" stop-color="#60873b"/>
    </linearGradient>
  </defs>
  <path class="cls-3" d="M108.11,62.74H35.03c-1.35,0-1.73-1.85-.49-2.38,20.37-8.7,35.78-18.97,43.53-29.23,4.62-6.13,6.33-12.01,5.07-17.5-.82-3.58-2.87-6.77-6.08-9.51,2.32.69,4.61,1.47,6.87,2.32,14.48,7.54,23.68,18.23,26.6,30.93,1.89,8.19,1.08,16.72-2.41,25.38Z"/>
  <path class="cls-2" d="M113.45,62.75c3.27-8.99,3.92-17.89,1.94-26.52-1.93-8.38-6.24-15.93-12.71-22.42,17.18,10.45,30.77,26.23,38.49,45.03.76,1.86-.63,3.9-2.64,3.9h-25.09Z"/>
  <path class="cls-1" d="M74.72,27.24c-13.89-7.98-30-12.54-47.17-12.54-9,0-17.71,1.25-25.97,3.6-1.37.39-2.19-1.44-1.01-2.23C15.66,5.91,33.83,0,53.38,0h.03c1.67,0,3.35.2,4.97.63,11.49,2.99,18.5,8.06,19.89,14.12.86,3.74-.34,7.93-3.55,12.49Z"/>
</svg>