<?xml version="1.0" encoding="UTF-8"?>
<svg id="Layer_2" data-name="Layer 2" xmlns="http://www.w3.org/2000/svg" viewBox="0 0 19.18 16.93">
  <defs>
    <style>
      .cls-1 {
        fill: #8bc53f;
      }
    </style>
  </defs>
  <g id="Layer_1-2" data-name="Layer 1">
    <g>
      <path class="cls-1" d="M2.02,4.03c-1.11,0-2.02-.9-2.02-2.02S.9,0,2.02,0s2.02.91,2.02,2.02-.9,2.02-2.02,2.02ZM2.02.75c-.7,0-1.27.57-1.27,1.27s.57,1.27,1.27,1.27,1.27-.57,1.27-1.27-.57-1.27-1.27-1.27Z"/>
      <path class="cls-1" d="M2.02,16.89c-1.11,0-2.02-.9-2.02-2.02s.9-2.02,2.02-2.02,2.02.9,2.02,2.02-.9,2.02-2.02,2.02ZM2.02,13.61c-.7,0-1.27.57-1.27,1.27s.57,1.27,1.27,1.27,1.27-.57,1.27-1.27-.57-1.27-1.27-1.27Z"/>
      <path class="cls-1" d="M9.59,10.42c-1.11,0-2.02-.9-2.02-2.02s.9-2.02,2.02-2.02,2.02.9,2.02,2.02-.9,2.02-2.02,2.02ZM9.59,7.14c-.7,0-1.27.57-1.27,1.27s.57,1.27,1.27,1.27,1.27-.57,1.27-1.27-.57-1.27-1.27-1.27Z"/>
      <rect class="cls-1" x="1.64" y="3.66" width=".75" height="9.57"/>
      <path class="cls-1" d="M9.59,4.03c-1.11,0-2.02-.9-2.02-2.02s.9-2.02,2.02-2.02,2.02.91,2.02,2.02-.9,2.02-2.02,2.02ZM9.59.75c-.7,0-1.27.57-1.27,1.27s.57,1.27,1.27,1.27,1.27-.57,1.27-1.27-.57-1.27-1.27-1.27Z"/>
      <path class="cls-1" d="M9.59,16.89c-1.11,0-2.02-.9-2.02-2.02s.9-2.02,2.02-2.02,2.02.9,2.02,2.02-.9,2.02-2.02,2.02ZM9.59,13.61c-.7,0-1.27.57-1.27,1.27s.57,1.27,1.27,1.27,1.27-.57,1.27-1.27-.57-1.27-1.27-1.27Z"/>
      <rect class="cls-1" x="9.22" y="3.66" width=".75" height="3.11"/>
      <rect class="cls-1" x="9.22" y="10.12" width=".75" height="3.11"/>
      <path class="cls-1" d="M17.17,4.03c-1.11,0-2.02-.9-2.02-2.02s.9-2.02,2.02-2.02,2.02.91,2.02,2.02-.9,2.02-2.02,2.02ZM17.17.75c-.7,0-1.27.57-1.27,1.27s.57,1.27,1.27,1.27,1.27-.57,1.27-1.27-.57-1.27-1.27-1.27Z"/>
      <path class="cls-1" d="M17.17,11c-.21,0-.38-.17-.38-.38V3.66c0-.21.17-.38.38-.38s.38.17.38.38v6.97c0,.21-.17.38-.38.38Z"/>
      <rect class="cls-1" x="2.02" y="8.03" width="5.93" height=".75"/>
      <rect class="cls-1" x="11.22" y="8.03" width="5.93" height=".75"/>
      <path class="cls-1" d="M15.91,16.92c-.11,0-.21-.03-.29-.1-.09-.07-.13-.15-.13-.25v-3.35c0-.1.03-.18.1-.25.07-.07.15-.1.25-.1h1.67c.2,0,.39.05.57.16.18.11.32.25.43.44.11.19.16.4.16.65,0,.15-.03.29-.09.43-.06.14-.14.26-.24.38s-.22.2-.35.26v-.13c.11.06.2.13.28.21s.13.16.17.26.06.19.07.29c.02.1.03.18.03.26,0,.07.02.14.04.19.02.05.05.09.1.12.09.05.14.12.16.22.02.1,0,.18-.07.25-.04.05-.1.08-.16.1s-.13.01-.2,0c-.07-.01-.12-.03-.16-.05-.07-.04-.13-.1-.2-.17s-.12-.18-.16-.31c-.04-.13-.06-.29-.06-.49,0-.07-.01-.13-.04-.18-.02-.06-.06-.1-.1-.14-.04-.04-.1-.07-.16-.09-.07-.02-.14-.03-.23-.03h-1.17l.09-.13v1.26c0,.1-.03.19-.08.25-.05.07-.13.1-.23.1ZM16.13,14.84h1.35c.07,0,.14-.03.2-.1s.12-.15.16-.26c.04-.11.06-.23.06-.36,0-.17-.05-.31-.14-.43-.09-.11-.19-.17-.29-.17h-1.34l.07-.19v1.64l-.08-.14Z"/>
    </g>
  </g>
</svg>