<?xml version="1.0" encoding="UTF-8"?>
<svg id="Layer_2" data-name="Layer 2" xmlns="http://www.w3.org/2000/svg" viewBox="0 0 12.36 29.54">
  <defs>
    <style>
      .cls-1 {
        fill: #8bc53f;
      }
    </style>
  </defs>
  <g id="Layer_1-2" data-name="Layer 1">
    <g>
      <path class="cls-1" d="M10.01,19.94c0,.14,0,.26,0,.38,0,2.32,0,4.63,0,6.95,0,1.12-.62,1.96-1.65,2.2-.71.17-1.35,0-1.9-.49-.09-.08-.16-.18-.2-.22-.41.24-.77.54-1.18.67-1.39.45-2.72-.61-2.73-2.13,0-2.33,0-4.65,0-6.98,0-.12,0-.24,0-.36-.29.04-.54.1-.8.1-.82,0-1.51-.65-1.54-1.47-.03-.97-.02-1.95-.01-2.93,0-1.73-.02-3.46.02-5.18.04-1.57,1.32-2.83,2.89-2.85,2.17-.03,4.35-.03,6.52,0,1.57.02,2.87,1.28,2.89,2.85.04,2.42.02,4.84.02,7.26,0,.23,0,.47,0,.7-.03,1.17-1.03,1.89-2.15,1.55-.06-.02-.11-.03-.2-.05ZM3.24,19.79h-.02c0,2.45,0,4.9,0,7.35,0,.15,0,.3.02.46.04.38.23.67.54.88.42.27.86.3,1.3.06.46-.25.67-.66.67-1.18,0-2.88,0-5.75,0-8.63,0-.33.16-.5.44-.5.26,0,.41.18.41.49,0,.75,0,1.5,0,2.26,0,2.14,0,4.29,0,6.43,0,.64.47,1.18,1.06,1.26.63.09,1.23-.27,1.4-.87.06-.21.07-.44.07-.66,0-4.93-.01-9.86-.02-14.79,0-.14-.02-.31.05-.41.08-.13.25-.28.37-.28.14,0,.31.14.42.26.07.07.05.23.05.35,0,2.05,0,4.11,0,6.16,0,.3.1.53.36.69.52.31,1.12-.06,1.12-.71,0-2.57,0-5.14,0-7.71,0-1.26-.89-2.18-2.16-2.2-2.1-.02-4.21-.02-6.31,0-1.27.01-2.16.94-2.16,2.2,0,2.56,0,5.12,0,7.68,0,.12,0,.25.05.36.12.35.48.55.85.48.34-.06.58-.35.58-.72,0-2.05,0-4.11,0-6.16,0-.09,0-.18,0-.27.04-.25.16-.42.43-.43.27,0,.4.16.45.4.02.1,0,.2,0,.3,0,2.48,0,4.96,0,7.44Z"/>
      <path class="cls-1" d="M6.19,0c1.84,0,3.33,1.5,3.31,3.31-.02,1.86-1.52,3.35-3.37,3.33-1.81-.02-3.31-1.55-3.28-3.36C2.88,1.45,4.36,0,6.19,0ZM3.72,3.31c0,1.37,1.1,2.49,2.47,2.48,1.35,0,2.46-1.11,2.46-2.46,0-1.37-1.08-2.46-2.44-2.47-1.38,0-2.48,1.07-2.48,2.45Z"/>
    </g>
  </g>
</svg>