<?xml version="1.0" encoding="UTF-8"?>
<svg id="Layer_2" data-name="Layer 2" xmlns="http://www.w3.org/2000/svg" viewBox="0 0 86.47 66.86">
  <defs>
    <style>
      .cls-1 {
        fill: #8bc53f;
      }
    </style>
  </defs>
  <g id="Layer_1-2" data-name="Layer 1">
    <g>
      <path class="cls-1" d="M29.27,31.05l5.86,7.82c-3.04.97-5.76,2.41-8.12,4.05-1.88,1.3-4.43,1.06-6.04-.56-.93-.93-1.38-2.14-1.38-3.34,0-1.51.71-3,2.09-3.92,2.2-1.48,4.74-2.89,7.59-4.04Z"/>
      <path class="cls-1" d="M65.51,42.35c-1.61,1.62-4.16,1.86-6.04.56-2.52-1.74-5.43-3.26-8.71-4.23l-7.76-10.35c.08,0,.16,0,.25,0,9,0,16.26,3.19,21.56,6.76,2.46,1.66,2.8,5.15.71,7.26Z"/>
      <path class="cls-1" d="M20.77,19.72l5.65,7.52c-3.68,1.61-6.82,3.6-9.4,5.55-1.81,1.37-4.35,1.2-5.95-.41-.88-.89-1.31-2.04-1.31-3.18,0-1.32.58-2.64,1.71-3.55,2.37-1.89,5.48-4.04,9.31-5.94Z"/>
      <path class="cls-1" d="M75.4,32.39c-1.6,1.61-4.14,1.78-5.95.41-5.91-4.48-14.77-9.1-26.22-9.1-1.23,0-2.43.05-3.61.15l-6.33-8.44c3.07-.62,6.39-.98,9.94-.98,14.93,0,25.76,6.43,31.77,11.23,2.11,1.68,2.29,4.81.4,6.73Z"/>
      <path class="cls-1" d="M12.4,8.57l5.47,7.29c-4.52,2.29-8.09,4.86-10.63,6.97-1.75,1.46-4.32,1.35-5.93-.27l-.04-.04c-1.79-1.8-1.68-4.73.23-6.4,2.4-2.09,6.06-4.91,10.9-7.56Z"/>
      <path class="cls-1" d="M85.19,22.53l-.04.04c-1.61,1.62-4.18,1.73-5.93.27-6.21-5.17-18.53-13.03-35.99-13.03-4.72,0-9.06.58-13.01,1.52l-5.86-7.82c5.5-1.69,11.81-2.81,18.88-2.81,21.21,0,35.59,10.09,41.73,15.44,1.91,1.67,2.01,4.6.23,6.4Z"/>
      <path class="cls-1" d="M44.92,51.91c-.55-.07-1.11-.11-1.69-.11-2.4,0-4.59.65-6.57,1.69-1.82.96-4.06.58-5.5-.88-.93-.94-1.37-2.13-1.37-3.32,0-1.65.86-3.28,2.46-4.16,1.79-.98,3.75-1.78,5.87-2.29l6.81,9.07Z"/>
      <circle class="cls-1" cx="43.23" cy="61.61" r="5.25"/>
      <rect class="cls-1" x="32.96" y="-6.67" width="7.23" height="73.91" rx="3.61" ry="3.61" transform="translate(-10.86 28.01) rotate(-36.88)"/>
    </g>
  </g>
</svg>