<?xml version="1.0" encoding="UTF-8"?>
<svg id="Layer_2" data-name="Layer 2" xmlns="http://www.w3.org/2000/svg" viewBox="0 0 17.28 14.3">
  <defs>
    <style>
      .cls-1 {
        fill: #8bc53f;
      }
    </style>
  </defs>
  <g id="Layer_1-2" data-name="Layer 1">
    <path class="cls-1" d="M5.36,2.98c0-.49,0-.96,0-1.43C5.36.64,6,0,6.9,0c1.16,0,2.32,0,3.48,0,.88,0,1.53.64,1.53,1.52,0,.48,0,.95,0,1.46.08,0,.14,0,.21,0,1.21,0,2.42,0,3.63,0,.88,0,1.52.64,1.53,1.53,0,2.75,0,5.51,0,8.26,0,.88-.64,1.53-1.52,1.53-4.74,0-9.48,0-14.22,0-.89,0-1.53-.64-1.53-1.54,0-2.75,0-5.5,0-8.25,0-.89.64-1.53,1.54-1.53,1.2,0,2.39,0,3.59,0,.07,0,.14,0,.23,0ZM4.78,3.58v10.11h7.72V3.58h-7.72ZM2.38,3.57c-.27,0-.51,0-.76,0-.66,0-1.02.36-1.02,1.03,0,2.69,0,5.39,0,8.08,0,.04,0,.07,0,.11.01.47.3.84.76.89.33.04.68,0,1.02,0V3.57ZM14.9,13.7c.26,0,.5,0,.74,0,.69,0,1.04-.35,1.04-1.04,0-2.68,0-5.36,0-8.04,0-.06,0-.11,0-.17-.02-.43-.3-.79-.72-.84-.34-.04-.7,0-1.06,0v10.11ZM2.99,3.58v10.11h1.17V3.58h-1.17ZM14.29,13.69V3.59h-1.17v10.11h1.17ZM11.32,2.97c0-.52.01-1.02,0-1.53-.02-.48-.39-.84-.87-.85-1.2-.01-2.41,0-3.61,0-.43,0-.77.3-.85.72-.03.19-.03.39-.03.59,0,.35,0,.7,0,1.05h.6c0-.47,0-.93,0-1.39,0-.29.09-.38.39-.38,1.05,0,2.11,0,3.16,0,.61,0,.61,0,.61.61,0,.39,0,.78,0,1.17h.59ZM7.16,2.97h2.96v-1.17h-2.96v1.17Z"/>
  </g>
</svg>